<mxfile host="65bd71144e">
    <diagram id="OVwQdDfVP2BzbkkkygOf" name="Page-1">
        <mxGraphModel dx="1737" dy="817" grid="1" gridSize="10" guides="1" tooltips="1" connect="1" arrows="1" fold="1" page="1" pageScale="1" pageWidth="850" pageHeight="1100" math="0" shadow="0">
            <root>
                <mxCell id="0"/>
                <mxCell id="1" parent="0"/>
                <mxCell id="2" value="Vertical Container" style="swimlane;whiteSpace=wrap;html=1;" vertex="1" parent="1">
                    <mxGeometry x="-425" y="180" width="870" height="500" as="geometry"/>
                </mxCell>
                <mxCell id="3" value="Enter what term in the Secuence that you want to generate" style="text;html=1;strokeColor=none;fillColor=none;align=center;verticalAlign=middle;whiteSpace=wrap;rounded=0;" vertex="1" parent="2">
                    <mxGeometry x="60" y="140" width="230" height="30" as="geometry"/>
                </mxCell>
                <mxCell id="4" value="Generate" style="rounded=1;whiteSpace=wrap;html=1;" vertex="1" parent="2">
                    <mxGeometry x="60" y="200" width="120" height="60" as="geometry"/>
                </mxCell>
                <mxCell id="5" value="Term" style="text;html=1;strokeColor=none;fillColor=none;align=center;verticalAlign=middle;whiteSpace=wrap;rounded=0;" vertex="1" parent="2">
                    <mxGeometry x="60" y="290" width="60" height="30" as="geometry"/>
                </mxCell>
            </root>
        </mxGraphModel>
    </diagram>
</mxfile>